<svg data-v-423bf9ae="" xmlns="http://www.w3.org/2000/svg" viewBox="0 0 401.0706150341686 60" class="font"><!----><!----><!----><g data-v-423bf9ae="" id="a905324a-bf8c-4c53-9f0a-30629aad6ab7" fill="black" transform="matrix(5.831435203552246,0,0,5.831435203552246,-0.18223528563976288,-18.018224716186523)"><path d="M6.68 11.87L5.05 7.24L5.61 7.24L5.61 7.13L3.85 7.13L3.85 7.24L4.06 7.24L4.52 8.29L3.39 11.80L1.93 7.64L3.05 7.64L3.05 7.13L0.03 7.13L0.03 7.64L0.80 7.64L2.90 13.38L3.32 13.38L4.75 9.18L6.19 13.38L6.59 13.38L8.55 8.01L8.55 8.01Q8.78 7.76 9.04 7.70L9.04 7.70L9.04 7.70Q9.30 7.64 9.52 7.64L9.52 7.64L9.52 7.13L7.07 7.13L7.07 7.64L7.07 7.64Q7.52 7.64 7.74 7.73L7.74 7.73L7.74 7.73Q7.97 7.83 7.97 8.09L7.97 8.09L6.68 11.87ZM14.43 12.64L14.43 12.64L14.43 13.17L16.39 13.17L16.39 12.66L15.50 12.66L15.50 3.09L15.50 3.09Q15.34 3.19 15.16 3.23L15.16 3.23L15.16 3.23Q14.98 3.28 14.70 3.28L14.70 3.28L13.47 3.28L13.47 3.78L14.43 3.78L14.43 7.71L14.43 7.71Q14.01 7.32 13.44 7.15L13.44 7.15L13.44 7.15Q12.87 6.97 12.24 6.97L12.24 6.97L12.24 6.97Q11.82 6.97 11.46 7.13L11.46 7.13L11.46 7.13Q11.10 7.29 10.84 7.59L10.84 7.59L10.84 7.59Q10.58 7.88 10.44 8.29L10.44 8.29L10.44 8.29Q10.30 8.69 10.30 9.17L10.30 9.17L10.30 11.12L10.30 11.12Q10.30 12.12 10.82 12.69L10.82 12.69L10.82 12.69Q11.33 13.26 12.25 13.26L12.25 13.26L12.25 13.26Q13.58 13.26 14.43 12.64ZM14.43 8.62L14.43 11.79L14.43 11.79Q14.38 12.19 13.82 12.47L13.82 12.47L13.82 12.47Q13.27 12.75 12.43 12.75L12.43 12.75L12.43 12.75Q11.82 12.75 11.62 12.40L11.62 12.40L11.62 12.40Q11.42 12.05 11.42 11.23L11.42 11.23L11.42 9.03L11.42 9.03Q11.42 8.23 11.62 7.85L11.62 7.85L11.62 7.85Q11.82 7.48 12.39 7.48L12.39 7.48L12.39 7.48Q13.24 7.48 13.77 7.80L13.77 7.80L13.77 7.80Q14.29 8.12 14.43 8.62L14.43 8.62ZM20.72 12.66L19.66 12.67L19.66 8.79L19.66 8.79Q19.66 8.54 19.77 8.30L19.77 8.30L19.77 8.30Q19.88 8.06 20.07 7.88L20.07 7.88L20.07 7.88Q20.26 7.70 20.51 7.59L20.51 7.59L20.51 7.59Q20.76 7.48 21.03 7.48L21.03 7.48L21.03 7.48Q21.18 7.48 21.26 7.51L21.26 7.51L21.26 7.51Q21.34 7.55 21.34 7.66L21.34 7.66L21.34 7.66Q21.28 7.76 21.24 7.86L21.24 7.86L21.24 7.86Q21.21 7.97 21.20 8.08L21.20 8.08L21.20 8.08Q21.18 8.19 21.17 8.29L21.17 8.29L21.17 8.29Q21.17 8.39 21.17 8.48L21.17 8.48L21.17 8.48Q21.36 8.79 21.80 8.78L21.80 8.78L21.80 8.78Q22.22 8.78 22.22 8.43L22.22 8.43L22.22 8.43Q22.22 8.29 22.20 8.04L22.20 8.04L22.20 8.04Q22.19 7.78 22.10 7.55L22.10 7.55L22.10 7.55Q22.01 7.32 21.80 7.15L21.80 7.15L21.80 7.15Q21.60 6.97 21.22 6.97L21.22 6.97L21.22 6.97Q20.75 6.97 20.34 7.17L20.34 7.17L20.34 7.17Q19.94 7.36 19.66 7.81L19.66 7.81L19.66 6.94L19.66 6.94Q19.50 7.04 19.33 7.08L19.33 7.08L19.33 7.08Q19.15 7.13 18.86 7.13L18.86 7.13L17.60 7.13L17.60 7.63L18.61 7.63L18.61 12.66L17.60 12.66L17.60 13.17L20.72 13.17L20.72 12.66ZM28.71 11.07L28.71 11.07L28.71 9.16L28.71 9.16Q28.71 8.15 28.17 7.56L28.17 7.56L28.17 7.56Q27.64 6.97 26.67 6.97L26.67 6.97L25.41 6.97L25.41 6.97Q24.49 6.97 23.93 7.56L23.93 7.56L23.93 7.56Q23.38 8.15 23.38 9.16L23.38 9.16L23.38 11.07L23.38 11.07Q23.38 12.08 23.93 12.67L23.93 12.67L23.93 12.67Q24.47 13.26 25.41 13.26L25.41 13.26L26.67 13.26L26.67 13.26Q27.61 13.26 28.16 12.67L28.16 12.67L28.16 12.67Q28.71 12.08 28.71 11.07ZM27.58 8.79L27.58 11.44L27.58 11.44Q27.58 12.15 27.33 12.45L27.33 12.45L27.33 12.45Q27.09 12.75 26.42 12.75L26.42 12.75L25.66 12.75L25.66 12.75Q25.02 12.75 24.77 12.45L24.77 12.45L24.77 12.45Q24.51 12.15 24.51 11.44L24.51 11.44L24.51 8.79L24.51 8.79Q24.51 8.08 24.77 7.78L24.77 7.78L24.77 7.78Q25.02 7.48 25.66 7.48L25.66 7.48L26.42 7.48L26.42 7.48Q27.09 7.48 27.33 7.78L27.33 7.78L27.33 7.78Q27.58 8.08 27.58 8.79L27.58 8.79ZM34.71 7.13L29.92 7.13L29.92 9.07L30.45 9.07L30.45 8.48L30.45 8.48Q30.45 8.01 30.72 7.82L30.72 7.82L30.72 7.82Q30.98 7.63 31.33 7.63L31.33 7.63L33.36 7.63L29.61 12.78L29.61 13.17L34.54 13.17L34.54 11.27L34.01 11.27L34.01 11.80L34.01 11.80Q34.01 12.31 33.77 12.49L33.77 12.49L33.77 12.49Q33.53 12.67 33.07 12.67L33.07 12.67L30.94 12.67L34.71 7.46L34.71 7.13ZM40.56 11.65L40.56 11.33L40.01 11.33L40.01 11.56L40.01 11.56Q39.82 12.75 38.67 12.75L38.67 12.75L37.77 12.75L37.77 12.75Q36.82 12.75 36.82 11.76L36.82 11.76L36.82 10.02L40.36 10.02L40.36 10.02Q40.45 10.02 40.47 9.65L40.47 9.65L40.47 9.65Q40.49 9.45 40.50 9.23L40.50 9.23L40.50 9.23Q40.52 9.00 40.50 8.72L40.50 8.72L40.50 8.72Q40.49 8.34 40.33 8.03L40.33 8.03L40.33 8.03Q40.18 7.71 39.92 7.48L39.92 7.48L39.92 7.48Q39.66 7.24 39.30 7.10L39.30 7.10L39.30 7.10Q38.95 6.97 38.53 6.97L38.53 6.97L37.52 6.97L37.52 6.97Q37.13 6.97 36.79 7.14L36.79 7.14L36.79 7.14Q36.46 7.31 36.22 7.60L36.22 7.60L36.22 7.60Q35.98 7.90 35.84 8.30L35.84 8.30L35.84 8.30Q35.70 8.71 35.70 9.17L35.70 9.17L35.70 11.14L35.70 11.14Q35.70 12.12 36.20 12.69L36.20 12.69L36.20 12.69Q36.69 13.26 37.59 13.26L37.59 13.26L38.77 13.26L38.77 13.26Q39.10 13.26 39.40 13.18L39.40 13.18L39.40 13.18Q39.69 13.10 39.93 12.92L39.93 12.92L39.93 12.92Q40.17 12.74 40.33 12.42L40.33 12.42L40.33 12.42Q40.49 12.11 40.56 11.65L40.56 11.65ZM39.35 9.52L36.82 9.52L36.82 8.55L36.82 8.55Q36.82 7.48 37.74 7.48L37.74 7.48L38.47 7.48L38.47 7.48Q38.95 7.48 39.17 7.71L39.17 7.71L39.17 7.71Q39.40 7.95 39.38 8.50L39.38 8.50L39.35 9.52ZM48.02 12.66L47.08 12.67L47.08 8.23L47.08 8.23Q47.08 7.60 46.69 7.29L46.69 7.29L46.69 7.29Q46.30 6.97 45.57 6.97L45.57 6.97L45.57 6.97Q44.93 6.97 44.35 7.15L44.35 7.15L44.35 7.15Q43.78 7.34 43.32 7.71L43.32 7.71L43.32 6.94L43.32 6.94Q43.16 7.04 42.99 7.08L42.99 7.08L42.99 7.08Q42.81 7.13 42.52 7.13L42.52 7.13L41.27 7.13L41.27 7.63L42.27 7.63L42.27 12.66L41.29 12.66L41.29 13.17L44.25 13.17L44.25 12.66L43.32 12.67L43.32 8.30L43.32 8.30Q43.36 8.18 43.54 8.03L43.54 8.03L43.54 8.03Q43.72 7.88 44.00 7.76L44.00 7.76L44.00 7.76Q44.28 7.63 44.64 7.55L44.64 7.55L44.64 7.55Q45.00 7.48 45.42 7.48L45.42 7.48L45.42 7.48Q46.03 7.48 46.03 8.13L46.03 8.13L46.03 12.66L45.04 12.66L45.04 13.17L48.02 13.17L48.02 12.66ZM50.02 4.97L50.02 4.97L50.02 4.97Q50.02 5.25 50.22 5.45L50.22 5.45L50.22 5.45Q50.41 5.64 50.71 5.64L50.71 5.64L50.71 5.64Q51.00 5.64 51.20 5.45L51.20 5.45L51.20 5.45Q51.39 5.25 51.39 4.96L51.39 4.96L51.39 4.96Q51.39 4.68 51.20 4.48L51.20 4.48L51.20 4.48Q51.00 4.28 50.71 4.28L50.71 4.28L50.71 4.28Q50.41 4.28 50.22 4.48L50.22 4.48L50.22 4.48Q50.02 4.68 50.02 4.97ZM52.23 12.66L51.28 12.67L51.28 6.94L51.28 6.94Q51.11 7.04 50.94 7.08L50.94 7.08L50.94 7.08Q50.76 7.13 50.47 7.13L50.47 7.13L49.22 7.13L49.22 7.63L50.22 7.63L50.25 12.66L49.22 12.66L49.22 13.17L52.23 13.17L52.23 12.66ZM57.92 11.65L57.92 11.33L57.37 11.33L57.37 11.56L57.37 11.56Q57.18 12.75 56.03 12.75L56.03 12.75L55.13 12.75L55.13 12.75Q54.18 12.75 54.18 11.76L54.18 11.76L54.18 10.02L57.72 10.02L57.72 10.02Q57.81 10.02 57.83 9.65L57.83 9.65L57.83 9.65Q57.85 9.45 57.86 9.23L57.86 9.23L57.86 9.23Q57.88 9.00 57.86 8.72L57.86 8.72L57.86 8.72Q57.85 8.34 57.69 8.03L57.69 8.03L57.69 8.03Q57.54 7.71 57.28 7.48L57.28 7.48L57.28 7.48Q57.02 7.24 56.66 7.10L56.66 7.10L56.66 7.10Q56.31 6.97 55.89 6.97L55.89 6.97L54.88 6.97L54.88 6.97Q54.49 6.97 54.15 7.14L54.15 7.14L54.15 7.14Q53.82 7.31 53.58 7.60L53.58 7.60L53.58 7.60Q53.34 7.90 53.20 8.30L53.20 8.30L53.20 8.30Q53.06 8.71 53.06 9.17L53.06 9.17L53.06 11.14L53.06 11.14Q53.06 12.12 53.56 12.69L53.56 12.69L53.56 12.69Q54.05 13.26 54.95 13.26L54.95 13.26L56.13 13.26L56.13 13.26Q56.46 13.26 56.76 13.18L56.76 13.18L56.76 13.18Q57.05 13.10 57.29 12.92L57.29 12.92L57.29 12.92Q57.53 12.74 57.69 12.42L57.69 12.42L57.69 12.42Q57.85 12.11 57.92 11.65L57.92 11.65ZM56.71 9.52L54.18 9.52L54.18 8.55L54.18 8.55Q54.18 7.48 55.10 7.48L55.10 7.48L55.83 7.48L55.83 7.48Q56.31 7.48 56.53 7.71L56.53 7.71L56.53 7.71Q56.76 7.95 56.74 8.50L56.74 8.50L56.71 9.52ZM60.07 11.90L60.07 11.90L60.07 11.90Q59.78 11.90 59.58 12.10L59.58 12.10L59.58 12.10Q59.37 12.31 59.37 12.60L59.37 12.60L59.37 12.60Q59.37 12.89 59.58 13.10L59.58 13.10L59.58 13.10Q59.78 13.30 60.07 13.30L60.07 13.30L60.07 13.30Q60.37 13.30 60.57 13.10L60.57 13.10L60.57 13.10Q60.77 12.89 60.77 12.60L60.77 12.60L60.77 12.60Q60.77 12.31 60.57 12.10L60.57 12.10L60.57 12.10Q60.37 11.90 60.07 11.90ZM62.72 4.97L62.72 4.97L62.72 4.97Q62.72 5.25 62.92 5.45L62.92 5.45L62.92 5.45Q63.11 5.64 63.41 5.64L63.41 5.64L63.41 5.64Q63.70 5.64 63.90 5.45L63.90 5.45L63.90 5.45Q64.09 5.25 64.09 4.96L64.09 4.96L64.09 4.96Q64.09 4.68 63.90 4.48L63.90 4.48L63.90 4.48Q63.70 4.28 63.41 4.28L63.41 4.28L63.41 4.28Q63.11 4.28 62.92 4.48L62.92 4.48L62.92 4.48Q62.72 4.68 62.72 4.97ZM64.93 12.66L63.98 12.67L63.98 6.94L63.98 6.94Q63.81 7.04 63.64 7.08L63.64 7.08L63.64 7.08Q63.46 7.13 63.17 7.13L63.17 7.13L61.92 7.13L61.92 7.63L62.92 7.63L62.94 12.66L61.92 12.66L61.92 13.17L64.93 13.17L64.93 12.66ZM67.27 12.14L67.27 12.14L67.27 7.63L68.70 7.63L68.70 7.13L67.27 7.13L67.27 5.08L66.72 5.08L66.72 5.08Q66.65 5.84 66.42 6.35L66.42 6.35L66.42 6.35Q66.19 6.86 65.69 7.13L65.69 7.13L65.21 7.13L65.21 7.63L66.22 7.63L66.22 12.15L66.22 12.15Q66.22 13.26 67.54 13.26L67.54 13.26L67.54 13.26Q68.12 13.26 68.40 13.09L68.40 13.09L68.40 13.09Q68.67 12.92 68.81 12.73L68.81 12.73L68.81 12.43L68.71 12.31L68.71 12.31Q68.68 12.43 68.45 12.59L68.45 12.59L68.45 12.59Q68.22 12.75 67.90 12.75L67.90 12.75L67.90 12.75Q67.55 12.75 67.41 12.62L67.41 12.62L67.41 12.62Q67.27 12.49 67.27 12.14Z"></path></g><!----><!----></svg>